<svg xmlns="http://www.w3.org/2000/svg" xmlns:xlink="http://www.w3.org/1999/xlink" preserveAspectRatio="xMidYMid" width="18" height="18" viewBox="0 0 18 18">
  <defs>
    <style>
      .cls-1 {
        fill: #5b8ab5;
        fill-rule: evenodd;
      }
    </style>
  </defs>
  <path d="M9.000,-0.000 C4.050,-0.000 -0.000,4.050 -0.000,9.000 C-0.000,13.950 4.050,18.000 9.000,18.000 C13.950,18.000 18.000,13.950 18.000,9.000 C18.000,4.050 13.950,-0.000 9.000,-0.000 ZM9.900,15.300 L8.100,15.300 L8.100,13.500 L9.900,13.500 L9.900,15.300 ZM11.790,8.370 L10.980,9.180 C10.260,9.810 9.900,10.350 9.900,11.700 L8.100,11.700 L8.100,11.250 C8.100,10.260 8.460,9.360 9.180,8.730 L10.260,7.560 C10.620,7.290 10.800,6.840 10.800,6.300 C10.800,5.310 9.990,4.500 9.000,4.500 C8.010,4.500 7.200,5.310 7.200,6.300 L5.400,6.300 C5.400,4.320 7.020,2.700 9.000,2.700 C10.980,2.700 12.600,4.320 12.600,6.300 C12.600,7.110 12.240,7.830 11.790,8.370 Z" class="cls-1"/>
</svg>
