<svg xmlns="http://www.w3.org/2000/svg" xmlns:xlink="http://www.w3.org/1999/xlink" preserveAspectRatio="xMidYMid" width="15" height="15" viewBox="0 0 15 15">
  <defs>
    <style>
      .cls-1 {
        fill: #9fa2a3;
        fill-rule: evenodd;
      }
    </style>
  </defs>
  <path d="M10.714,9.429 L10.029,9.429 L9.771,9.171 C10.628,8.228 11.143,6.943 11.143,5.571 C11.143,2.486 8.657,-0.000 5.571,-0.000 C2.486,-0.000 -0.000,2.486 -0.000,5.571 C-0.000,8.657 2.486,11.143 5.571,11.143 C6.943,11.143 8.229,10.629 9.171,9.771 L9.429,10.029 L9.429,10.714 L13.714,15.000 L15.000,13.714 L10.714,9.429 ZM5.571,9.429 C3.429,9.429 1.714,7.714 1.714,5.571 C1.714,3.429 3.429,1.714 5.571,1.714 C7.714,1.714 9.429,3.429 9.429,5.571 C9.429,7.714 7.714,9.429 5.571,9.429 Z" class="cls-1"/>
</svg>
