<svg xmlns="http://www.w3.org/2000/svg" xmlns:xlink="http://www.w3.org/1999/xlink" preserveAspectRatio="xMidYMid" width="82" height="75" viewBox="0 0 82 75">
  <defs>
    <style>
      .cls-1 {
        fill: #9bb7d6;
        opacity: 0.4;
      }

      .cls-1, .cls-2 {
        fill-rule: evenodd;
      }

      .cls-2 {
        fill: #5b8ab5;
      }
    </style>
  </defs>
  <g>
    <path d="M5.748,59.194 L76.252,59.194 C76.689,61.512 73.299,65.739 70.826,65.739 L11.174,65.739 C8.700,65.739 5.311,62.039 5.748,59.194 ZM63.714,57.487 L62.576,51.187 L77.470,51.187 L76.953,57.487 L63.714,57.487 ZM19.424,51.187 L18.285,57.488 L5.047,57.488 L4.530,51.187 L19.424,51.187 ZM24.762,23.300 C26.603,22.870 31.333,31.437 35.875,32.328 C40.792,33.291 40.717,32.957 46.125,32.328 C49.542,31.930 55.770,22.957 57.238,23.300 C70.461,23.154 69.781,36.931 69.781,36.931 L12.220,36.931 C12.220,36.931 12.582,21.924 24.762,23.300 Z" class="cls-1"/>
    <path d="M74.164,38.497 L78.352,37.990 C80.432,37.738 82.000,35.964 82.000,33.864 C82.000,31.573 80.140,29.708 77.855,29.708 L74.937,29.708 C73.155,29.708 71.631,30.842 71.047,32.429 L66.967,23.475 C65.454,20.149 62.428,17.676 58.874,16.860 C58.709,16.822 58.530,16.786 58.340,16.750 C57.998,7.456 50.351,0.001 41.000,0.001 C31.648,0.001 24.002,7.456 23.660,16.750 C23.468,16.786 23.289,16.822 23.124,16.860 C19.570,17.677 16.545,20.150 15.031,23.476 L10.951,32.427 C10.367,30.842 8.844,29.708 7.062,29.708 L4.145,29.708 C1.859,29.708 -0.000,31.572 -0.000,33.864 C-0.000,35.964 1.568,37.738 3.648,37.990 L7.836,38.497 L3.831,42.513 C1.884,44.465 0.952,47.262 1.339,49.995 L2.709,59.679 C3.061,62.168 4.348,64.339 6.178,65.856 L6.178,70.254 C6.178,72.870 8.301,74.999 10.910,74.999 L18.757,74.999 C21.367,74.999 23.489,72.870 23.489,70.254 L23.489,68.118 L58.511,68.118 L58.511,70.254 C58.511,72.870 60.634,74.999 63.244,74.999 L71.089,74.999 C73.698,74.999 75.821,72.870 75.821,70.254 L75.821,65.856 C77.651,64.339 78.939,62.168 79.291,59.679 L80.661,49.995 C81.047,47.262 80.116,44.465 78.169,42.513 L74.164,38.497 ZM69.596,64.974 L12.404,64.974 C9.234,64.974 6.493,62.690 5.878,59.605 L76.122,59.605 C75.507,62.690 72.766,64.974 69.596,64.974 ZM59.474,51.346 L61.068,56.461 L58.896,56.461 L57.302,51.346 L59.474,51.346 ZM54.016,51.346 L55.610,56.461 L26.389,56.461 L27.983,51.346 L54.016,51.346 ZM23.103,56.461 L20.932,56.461 L22.526,51.346 L24.697,51.346 L23.103,56.461 ZM17.646,56.461 L5.421,56.461 L4.697,51.346 L19.240,51.346 L17.646,56.461 ZM64.354,56.461 L62.760,51.346 L77.303,51.346 L76.579,56.461 L64.354,56.461 ZM73.929,33.864 C73.929,33.306 74.381,32.852 74.938,32.852 L77.855,32.852 C78.411,32.852 78.864,33.306 78.864,33.864 C78.864,34.375 78.482,34.807 77.976,34.868 L73.929,35.358 L73.929,33.864 L73.929,33.864 ZM61.803,21.746 C60.835,21.577 59.533,21.428 57.914,21.300 C58.017,20.848 58.102,20.389 58.170,19.924 C58.172,19.925 58.173,19.925 58.175,19.925 C59.521,20.234 60.762,20.870 61.803,21.746 ZM41.000,3.145 C48.839,3.145 55.217,9.540 55.217,17.399 C55.217,25.259 48.840,31.653 41.000,31.653 C33.161,31.653 26.783,25.259 26.783,17.399 C26.783,9.539 33.161,3.145 41.000,3.145 ZM23.824,19.925 C23.826,19.925 23.828,19.924 23.830,19.924 C23.898,20.388 23.983,20.847 24.086,21.299 C22.462,21.429 21.161,21.578 20.197,21.746 C21.237,20.870 22.478,20.235 23.824,19.925 ZM17.351,25.954 C18.321,25.461 19.369,25.104 20.477,24.890 C21.472,24.698 23.060,24.522 25.105,24.376 C27.792,30.506 33.905,34.797 41.000,34.797 C48.095,34.797 54.208,30.506 56.895,24.377 C58.935,24.521 60.524,24.697 61.525,24.890 C62.631,25.104 63.680,25.461 64.651,25.955 L69.497,36.589 L12.505,36.589 L17.351,25.954 ZM3.136,33.864 C3.136,33.306 3.589,32.852 4.145,32.852 L7.062,32.852 C7.619,32.852 8.071,33.306 8.071,33.864 L8.071,35.358 L4.024,34.868 C3.518,34.807 3.136,34.375 3.136,33.864 ZM11.038,39.734 L70.962,39.734 L75.952,44.736 C76.884,45.670 77.454,46.906 77.583,48.201 L4.417,48.201 C4.546,46.906 5.116,45.670 6.048,44.736 L11.038,39.734 ZM20.353,70.254 C20.353,71.136 19.637,71.854 18.758,71.854 L10.910,71.854 C10.030,71.854 9.314,71.136 9.314,70.254 L9.314,67.610 C10.291,67.939 11.331,68.118 12.404,68.118 L20.353,68.118 L20.353,70.254 ZM72.685,70.254 C72.685,71.136 71.969,71.854 71.089,71.854 L63.244,71.854 C62.364,71.854 61.648,71.136 61.648,70.254 L61.648,68.118 L69.596,68.118 C70.669,68.118 71.709,67.939 72.685,67.610 L72.685,70.254 L72.685,70.254 Z" class="cls-2"/>
    <path d="M76.523,5.322 C75.982,5.546 51.844,15.980 51.591,16.089 C51.596,16.210 51.600,16.331 51.600,16.453 C51.600,22.364 46.910,27.155 41.124,27.155 C35.338,27.155 30.648,22.364 30.648,16.453 C30.648,16.030 30.675,15.613 30.722,15.202 C30.532,15.119 8.555,5.530 8.130,5.346 C7.704,5.162 7.687,4.854 7.689,4.725 C7.691,4.597 7.773,4.396 7.773,4.396 L42.169,16.538 L42.170,16.538 L7.791,4.399 C7.791,4.399 7.977,3.754 8.630,3.955 L32.022,11.165 C33.813,7.919 37.202,5.760 41.111,5.760 C45.236,5.760 48.855,8.170 50.554,11.717 L50.551,11.722 L75.951,3.911 C75.951,3.911 76.583,3.706 76.797,4.378 C75.737,4.743 45.717,15.292 42.471,16.432 L76.821,4.372 C76.821,4.372 77.066,5.097 76.523,5.322 ZM49.393,11.731 C49.448,11.830 49.501,11.929 49.552,12.029 L49.556,12.028 C49.505,11.927 49.448,11.830 49.393,11.731 ZM48.578,10.483 C48.692,10.631 48.804,10.781 48.910,10.935 C48.804,10.781 48.692,10.631 48.578,10.483 ZM48.993,11.066 C49.089,11.211 49.184,11.358 49.272,11.509 C49.184,11.358 49.089,11.211 48.993,11.066 ZM48.472,12.362 L48.433,12.349 C47.018,9.694 44.262,7.892 41.093,7.892 C38.154,7.892 35.569,9.443 34.081,11.788 L34.059,11.793 L42.180,14.296 L48.472,12.362 ZM49.406,17.067 L42.249,20.183 C42.249,20.183 36.052,19.668 35.440,19.623 C34.832,19.578 34.738,19.156 34.737,19.150 L34.737,19.150 C34.736,19.150 34.737,19.150 34.737,19.149 C34.737,19.149 34.736,19.148 34.736,19.148 L34.736,19.148 C34.732,19.127 34.739,19.113 34.734,19.092 C34.721,19.031 34.706,18.923 34.722,18.793 C34.729,18.747 34.737,18.707 34.751,18.666 C34.769,18.602 34.798,18.538 34.839,18.474 C34.849,18.459 34.855,18.442 34.865,18.429 C34.883,18.405 34.910,18.382 34.933,18.359 C35.022,18.266 35.106,18.206 35.106,18.206 L35.186,18.173 C35.216,18.157 35.238,18.139 35.272,18.124 C36.031,17.800 36.404,17.659 36.404,17.659 L36.409,17.658 L32.816,16.090 L32.797,16.067 C32.792,16.188 32.788,16.310 32.788,16.432 C32.788,21.128 36.514,24.934 41.111,24.934 C45.498,24.934 49.088,21.465 49.406,17.066 L49.406,17.067 ZM34.747,19.144 C34.747,19.143 34.746,19.142 34.746,19.142 L34.741,19.146 L34.747,19.144 ZM50.531,15.547 L50.526,15.544 L50.521,15.551 C50.547,15.845 50.565,16.140 50.565,16.441 C50.565,16.438 50.565,16.435 50.565,16.432 C50.565,16.137 50.550,15.845 50.525,15.556 L50.531,15.547 Z" class="cls-2"/>
  </g>
</svg>
