<svg xmlns="http://www.w3.org/2000/svg" xmlns:xlink="http://www.w3.org/1999/xlink" preserveAspectRatio="xMidYMid" width="80" height="100" viewBox="0 0 80 100">
  <defs>
    <style>
      .cls-1 {
        fill: #9bb7d6;
        opacity: 0.4;
      }

      .cls-1, .cls-2 {
        fill-rule: evenodd;
      }

      .cls-2 {
        fill: #5b8ab5;
      }
    </style>
  </defs>
  <g>
    <path d="M40.000,96.237 C20.029,96.237 3.782,80.074 3.782,60.207 C3.782,51.851 6.722,43.708 12.062,37.277 C16.690,31.704 22.914,27.636 29.819,25.623 L29.528,26.872 C29.322,27.764 29.789,28.674 30.637,29.030 L33.488,30.224 L32.580,31.028 C26.240,32.620 20.506,36.285 16.389,41.389 C12.103,46.702 9.743,53.387 9.743,60.213 C9.743,76.811 23.316,90.315 39.999,90.315 C56.683,90.315 70.256,76.811 70.256,60.213 C70.256,52.539 67.353,45.232 62.081,39.635 C57.850,35.144 52.419,32.093 46.474,30.804 C46.612,30.370 46.593,29.888 46.390,29.448 L44.047,24.398 C52.344,25.313 60.018,29.027 65.919,35.041 C72.560,41.810 76.217,50.747 76.217,60.207 C76.218,80.074 59.970,96.237 40.000,96.237 Z" class="cls-1"/>
    <path d="M40.000,100.000 C17.944,100.000 -0.000,82.149 -0.000,60.207 C-0.000,50.978 3.248,41.984 9.146,34.881 C14.966,27.872 23.074,23.019 31.978,21.217 C32.608,21.089 33.261,21.289 33.710,21.748 C34.158,22.206 34.342,22.860 34.198,23.484 L33.572,26.176 L37.720,27.914 C38.319,28.165 38.746,28.704 38.852,29.341 C38.958,29.979 38.728,30.625 38.243,31.054 L34.374,34.476 L36.545,36.781 C37.011,37.275 37.174,37.981 36.970,38.628 C36.768,39.275 36.230,39.763 35.565,39.906 C30.977,40.892 26.804,43.440 23.816,47.081 C20.787,50.771 19.119,55.433 19.119,60.207 C19.119,71.661 28.486,80.979 40.000,80.979 C51.514,80.979 60.882,71.661 60.882,60.207 C60.882,54.783 58.794,49.651 55.002,45.757 C51.217,41.872 46.146,39.632 40.720,39.450 C40.203,39.432 39.716,39.205 39.372,38.820 L36.757,35.898 C36.395,35.494 36.226,34.954 36.293,34.417 C36.359,33.880 36.655,33.398 37.104,33.093 L42.285,29.579 L39.278,23.096 C39.004,22.505 39.056,21.816 39.415,21.273 C39.775,20.730 40.394,20.411 41.043,20.427 C51.508,20.694 61.304,24.951 68.626,32.413 C75.960,39.888 80.000,49.759 80.000,60.207 C80.000,82.149 62.056,100.000 40.000,100.000 ZM41.013,34.995 L41.670,35.730 C47.768,36.134 53.440,38.747 57.718,43.139 C62.197,47.739 64.664,53.800 64.664,60.207 C64.664,73.736 53.600,84.742 40.000,84.742 C26.400,84.742 15.337,73.736 15.337,60.207 C15.337,54.568 17.308,49.061 20.886,44.701 C23.730,41.237 27.483,38.610 31.672,37.111 L30.338,35.695 C26.064,37.368 22.242,40.145 19.339,43.744 C15.536,48.459 13.525,54.154 13.525,60.212 C13.525,74.736 25.402,86.552 40.000,86.552 C54.598,86.552 66.474,74.736 66.474,60.212 C66.474,53.498 63.934,47.104 59.321,42.208 C54.878,37.491 48.924,34.588 42.495,33.990 L41.013,34.995 ZM65.919,35.041 C60.018,29.027 52.344,25.313 44.047,24.398 L46.390,29.448 C46.593,29.888 46.612,30.370 46.474,30.804 C52.419,32.093 57.850,35.144 62.081,39.635 C67.353,45.232 70.256,52.539 70.256,60.213 C70.256,76.811 56.683,90.315 39.999,90.315 C23.316,90.315 9.743,76.811 9.743,60.213 C9.743,53.387 12.103,46.702 16.389,41.389 C20.506,36.285 26.240,32.620 32.580,31.028 L33.488,30.224 L30.637,29.030 C29.789,28.674 29.322,27.764 29.528,26.872 L29.819,25.623 C22.914,27.636 16.690,31.704 12.062,37.277 C6.722,43.708 3.782,51.851 3.782,60.207 C3.782,80.074 20.029,96.237 40.000,96.237 C59.970,96.237 76.218,80.074 76.217,60.207 C76.217,50.747 72.560,41.810 65.919,35.041 ZM49.647,19.001 C49.276,19.494 48.708,19.754 48.133,19.754 C47.738,19.754 47.340,19.631 47.000,19.377 C46.164,18.754 45.995,17.575 46.621,16.744 L49.231,13.281 L44.244,14.379 C43.579,14.526 42.888,14.305 42.431,13.803 C41.975,13.301 41.826,12.594 42.040,11.951 L43.304,8.151 L38.686,12.361 C38.302,12.712 37.789,12.888 37.269,12.851 C36.750,12.813 36.269,12.563 35.940,12.160 L32.691,8.177 L32.691,11.339 C32.691,11.892 32.446,12.417 32.022,12.774 C31.598,13.132 31.037,13.285 30.489,13.194 L27.236,12.655 L31.384,16.495 C32.148,17.203 32.192,18.393 31.480,19.154 C30.768,19.915 29.572,19.957 28.807,19.250 L20.055,11.148 C19.444,10.582 19.278,9.685 19.647,8.940 C20.015,8.195 20.831,7.778 21.655,7.915 L28.908,9.118 L28.908,2.873 C28.908,2.076 29.412,1.366 30.167,1.100 C30.922,0.834 31.763,1.069 32.268,1.687 L37.611,8.237 L46.103,0.494 C46.738,-0.085 47.685,-0.163 48.408,0.302 C49.131,0.767 49.446,1.659 49.176,2.472 L46.676,9.990 L53.399,8.510 C54.172,8.341 54.968,8.666 55.397,9.328 C55.826,9.989 55.795,10.846 55.320,11.476 L49.647,19.001 Z" class="cls-2"/>
  </g>
</svg>
