<svg xmlns="http://www.w3.org/2000/svg" xmlns:xlink="http://www.w3.org/1999/xlink" preserveAspectRatio="xMidYMid" width="82" height="75" viewBox="0 0 82 75">
  <defs>
    <style>
      .cls-1 {
        fill: #9bb7d6;
        opacity: 0.4;
      }

      .cls-1, .cls-2 {
        fill-rule: evenodd;
      }

      .cls-2 {
        fill: #5b8ab5;
      }
    </style>
  </defs>
  <g>
    <path d="M5.748,59.194 L76.252,59.194 C76.689,61.512 73.299,65.739 70.826,65.739 L11.174,65.739 C8.700,65.739 5.311,62.039 5.748,59.194 ZM63.714,57.487 L62.576,51.187 L77.470,51.187 L76.953,57.487 L63.714,57.487 ZM19.424,51.187 L18.285,57.488 L5.047,57.488 L4.530,51.187 L19.424,51.187 ZM24.762,23.300 C26.603,22.870 31.333,31.437 35.875,32.328 C40.792,33.291 40.717,32.957 46.125,32.328 C49.543,31.930 55.770,22.957 57.238,23.300 C70.461,23.154 69.781,36.931 69.781,36.931 L12.220,36.931 C12.220,36.931 12.582,21.924 24.762,23.300 Z" class="cls-1"/>
    <path d="M74.164,38.497 L78.352,37.990 C80.432,37.738 82.000,35.964 82.000,33.864 C82.000,31.573 80.140,29.708 77.855,29.708 L74.937,29.708 C73.155,29.708 71.631,30.842 71.047,32.429 L66.967,23.475 C65.454,20.149 62.428,17.676 58.874,16.860 C58.709,16.822 58.530,16.786 58.340,16.750 C57.998,7.456 50.351,0.001 41.000,0.001 C31.648,0.001 24.002,7.456 23.660,16.750 C23.468,16.786 23.289,16.822 23.124,16.860 C19.570,17.677 16.545,20.150 15.031,23.476 L10.951,32.427 C10.367,30.842 8.844,29.708 7.062,29.708 L4.145,29.708 C1.859,29.708 0.000,31.572 0.000,33.864 C0.000,35.964 1.568,37.738 3.648,37.990 L7.836,38.497 L3.831,42.513 C1.884,44.465 0.952,47.262 1.339,49.995 L2.709,59.679 C3.061,62.168 4.348,64.339 6.178,65.856 L6.178,70.254 C6.178,72.870 8.301,74.999 10.910,74.999 L18.757,74.999 C21.367,74.999 23.489,72.870 23.489,70.254 L23.489,68.118 L58.511,68.118 L58.511,70.254 C58.511,72.870 60.634,74.999 63.243,74.999 L71.089,74.999 C73.698,74.999 75.821,72.870 75.821,70.254 L75.821,65.856 C77.651,64.339 78.939,62.168 79.291,59.679 L80.661,49.995 C81.047,47.262 80.116,44.465 78.169,42.513 L74.164,38.497 ZM69.596,64.974 L12.404,64.974 C9.234,64.974 6.493,62.690 5.878,59.605 L76.122,59.605 C75.507,62.690 72.766,64.974 69.596,64.974 ZM59.474,51.346 L61.068,56.461 L58.896,56.461 L57.302,51.346 L59.474,51.346 ZM54.016,51.346 L55.611,56.461 L26.389,56.461 L27.983,51.346 L54.016,51.346 ZM23.103,56.461 L20.932,56.461 L22.526,51.346 L24.697,51.346 L23.103,56.461 ZM17.646,56.461 L5.421,56.461 L4.697,51.346 L19.240,51.346 L17.646,56.461 ZM64.354,56.461 L62.760,51.346 L77.303,51.346 L76.579,56.461 L64.354,56.461 ZM73.929,33.864 C73.929,33.306 74.381,32.852 74.938,32.852 L77.855,32.852 C78.411,32.852 78.864,33.306 78.864,33.864 C78.864,34.375 78.482,34.807 77.976,34.868 L73.929,35.358 L73.929,33.864 L73.929,33.864 ZM61.803,21.746 C60.835,21.577 59.533,21.428 57.914,21.300 C58.017,20.848 58.102,20.389 58.170,19.924 C58.172,19.925 58.173,19.925 58.175,19.925 C59.521,20.234 60.762,20.870 61.803,21.746 ZM41.000,3.145 C48.839,3.145 55.217,9.540 55.217,17.399 C55.217,25.259 48.840,31.653 41.000,31.653 C33.161,31.653 26.783,25.259 26.783,17.399 C26.783,9.539 33.161,3.145 41.000,3.145 ZM23.824,19.925 C23.826,19.925 23.828,19.924 23.830,19.924 C23.898,20.388 23.983,20.847 24.086,21.299 C22.462,21.429 21.161,21.578 20.197,21.746 C21.237,20.870 22.478,20.235 23.824,19.925 ZM17.351,25.954 C18.321,25.461 19.369,25.104 20.477,24.890 C21.472,24.698 23.060,24.522 25.105,24.376 C27.792,30.506 33.905,34.797 41.000,34.797 C48.095,34.797 54.208,30.506 56.895,24.377 C58.935,24.521 60.524,24.697 61.525,24.890 C62.631,25.104 63.680,25.461 64.651,25.955 L69.497,36.589 L12.505,36.589 L17.351,25.954 ZM3.136,33.864 C3.136,33.306 3.589,32.852 4.145,32.852 L7.062,32.852 C7.619,32.852 8.071,33.306 8.071,33.864 L8.071,35.358 L4.024,34.868 C3.518,34.807 3.136,34.375 3.136,33.864 ZM11.038,39.734 L70.962,39.734 L75.952,44.736 C76.884,45.670 77.454,46.906 77.583,48.201 L4.417,48.201 C4.546,46.906 5.116,45.670 6.048,44.736 L11.038,39.734 ZM20.353,70.254 C20.353,71.136 19.637,71.854 18.758,71.854 L10.910,71.854 C10.030,71.854 9.314,71.136 9.314,70.254 L9.314,67.610 C10.291,67.939 11.331,68.118 12.404,68.118 L20.353,68.118 L20.353,70.254 ZM72.685,70.254 C72.685,71.136 71.969,71.854 71.089,71.854 L63.244,71.854 C62.364,71.854 61.648,71.136 61.648,70.254 L61.648,68.118 L69.596,68.118 C70.669,68.118 71.709,67.939 72.685,67.610 L72.685,70.254 L72.685,70.254 Z" class="cls-2"/>
    <path d="M48.707,21.854 C46.637,23.238 43.900,24.000 41.000,24.000 C38.100,24.000 35.363,23.238 33.293,21.854 C31.170,20.435 30.000,18.533 30.000,16.500 C30.000,14.467 31.170,12.565 33.293,11.146 C35.363,9.762 38.100,9.000 41.000,9.000 C43.900,9.000 46.637,9.762 48.707,11.146 C50.830,12.565 52.000,14.467 52.000,16.500 C52.000,18.533 50.830,20.435 48.707,21.854 ZM37.981,14.464 C38.130,13.138 38.420,11.953 38.818,11.023 C38.585,11.053 38.357,11.087 38.134,11.126 C37.239,11.306 36.394,11.569 35.621,11.909 C35.079,12.202 34.768,12.530 34.768,12.809 C34.768,13.338 35.891,14.074 37.981,14.464 ZM37.867,16.283 C36.557,16.030 35.430,15.624 34.591,15.102 C33.843,14.636 33.356,14.094 33.152,13.510 C32.216,14.411 31.725,15.434 31.725,16.500 C31.725,19.084 34.713,21.370 38.786,21.989 C38.204,20.583 37.866,18.616 37.866,16.545 C37.866,16.458 37.866,16.371 37.867,16.283 ZM42.495,16.509 C41.514,16.593 40.486,16.593 39.505,16.509 C39.505,16.521 39.505,16.533 39.505,16.545 C39.505,19.757 40.271,21.819 40.853,22.154 C40.951,22.155 41.049,22.155 41.147,22.154 C41.729,21.819 42.495,19.757 42.495,16.545 C42.495,16.533 42.495,16.521 42.495,16.509 ZM42.400,14.673 C42.144,12.202 41.439,10.890 41.000,10.890 C40.560,10.890 39.856,12.202 39.599,14.673 C40.515,14.745 41.484,14.745 42.400,14.673 ZM44.019,14.464 C46.109,14.074 47.231,13.338 47.231,12.809 C47.231,12.530 46.921,12.202 46.379,11.909 C45.606,11.569 44.761,11.306 43.866,11.126 C43.643,11.087 43.415,11.053 43.182,11.023 C43.580,11.953 43.869,13.137 44.019,14.464 ZM43.214,21.989 C47.286,21.370 50.275,19.084 50.275,16.500 C50.275,15.434 49.784,14.411 48.848,13.510 C48.644,14.094 48.157,14.636 47.409,15.102 C46.570,15.624 45.442,16.030 44.133,16.284 C44.134,16.371 44.134,16.458 44.134,16.545 C44.134,18.616 43.796,20.583 43.214,21.989 Z" class="cls-2"/>
  </g>
</svg>
