<svg xmlns="http://www.w3.org/2000/svg" xmlns:xlink="http://www.w3.org/1999/xlink" preserveAspectRatio="xMidYMid" width="76" height="85" viewBox="0 0 76 85">
  <defs>
    <style>
      .cls-1 {
        fill: #9bb7d6;
        opacity: 0.4;
      }

      .cls-1, .cls-2 {
        fill-rule: evenodd;
      }

      .cls-2 {
        fill: #5b8ab5;
      }
    </style>
  </defs>
  <g>
    <path d="M24.604,3.765 L25.350,6.102 L4.471,12.911 L3.724,10.574 L24.604,3.765 ZM17.380,72.076 C15.731,77.074 11.508,80.648 6.491,81.500 L13.250,60.781 L21.294,60.781 C21.024,61.225 20.801,61.706 20.632,62.216 L17.380,72.076 ZM14.328,57.477 L15.213,54.763 C15.544,53.749 16.477,53.067 17.534,53.067 L34.602,53.067 L34.602,57.477 L14.328,57.477 ZM44.152,59.510 L37.872,59.510 L37.872,51.034 L44.152,51.034 L44.152,59.510 Z" class="cls-1"/>
    <path d="M75.249,42.607 L56.790,55.272 L75.249,67.937 C75.996,68.450 76.190,69.477 75.682,70.232 C75.366,70.702 74.852,70.956 74.328,70.956 C74.012,70.956 73.692,70.863 73.411,70.670 L52.960,56.639 C52.512,56.331 52.244,55.819 52.244,55.272 C52.244,54.725 52.512,54.213 52.960,53.906 L73.411,39.874 C74.158,39.361 75.175,39.558 75.682,40.312 C76.190,41.067 75.996,42.094 75.249,42.607 ZM48.973,55.817 C49.876,55.817 50.608,56.557 50.608,57.469 C50.608,58.381 49.876,59.121 48.973,59.121 L47.422,59.121 L47.422,61.162 C47.422,62.074 46.690,62.814 45.787,62.814 L36.237,62.814 C35.334,62.814 34.602,62.074 34.602,61.162 L34.602,60.781 L29.598,60.781 C29.967,64.444 31.557,67.841 34.170,70.481 L35.158,71.479 C35.797,72.125 35.797,73.170 35.158,73.816 C34.839,74.138 34.420,74.299 34.002,74.299 C33.583,74.299 33.165,74.138 32.846,73.816 L31.857,72.817 C28.649,69.576 26.719,65.388 26.322,60.877 C25.126,61.158 24.136,62.046 23.735,63.261 L20.482,73.120 C18.138,80.226 11.582,85.000 4.167,85.000 C3.642,85.000 3.149,84.746 2.842,84.316 C2.534,83.887 2.449,83.334 2.613,82.831 L11.698,54.983 L7.859,54.983 C6.956,54.983 6.224,54.243 6.224,53.331 C6.224,52.419 6.956,51.679 7.859,51.679 L13.284,51.679 C14.344,50.486 15.872,49.763 17.535,49.763 L22.816,49.763 L20.820,43.973 L10.790,41.061 C10.267,40.909 9.853,40.504 9.685,39.981 L0.109,10.017 C-0.024,9.600 0.012,9.147 0.210,8.757 C0.407,8.367 0.750,8.072 1.163,7.938 L25.155,0.114 C25.568,-0.021 26.017,0.016 26.403,0.216 C26.789,0.415 27.081,0.762 27.214,1.178 L36.790,31.142 C36.957,31.665 36.856,32.238 36.519,32.671 L30.111,40.903 L33.164,49.763 L34.602,49.763 L34.602,49.382 C34.602,48.470 35.334,47.730 36.237,47.730 L45.787,47.730 C46.690,47.730 47.422,48.470 47.422,49.382 L47.422,51.423 L48.973,51.423 C49.876,51.423 50.608,52.163 50.608,53.075 C50.608,53.988 49.876,54.727 48.973,54.727 L48.973,54.727 L47.422,54.727 L47.422,55.817 L48.973,55.817 ZM13.250,60.781 L6.491,81.500 C11.508,80.648 15.731,77.074 17.380,72.076 L20.632,62.216 C20.801,61.706 21.024,61.225 21.294,60.781 L13.250,60.781 ZM24.604,3.765 L3.724,10.574 L4.471,12.911 L25.350,6.102 L24.604,3.765 ZM33.410,31.320 L26.355,9.245 L5.475,16.054 L12.530,38.129 L22.056,40.895 L27.294,39.177 L33.410,31.320 ZM24.179,43.672 L26.279,49.763 L29.701,49.763 L27.254,42.663 L24.179,43.672 ZM34.602,53.067 L17.534,53.067 C16.477,53.067 15.544,53.749 15.213,54.763 L14.328,57.477 L34.602,57.477 L34.602,53.067 ZM44.152,51.034 L37.872,51.034 L37.872,59.510 L44.152,59.510 L44.152,51.034 Z" class="cls-2"/>
  </g>
</svg>
