<svg xmlns="http://www.w3.org/2000/svg" xmlns:xlink="http://www.w3.org/1999/xlink" preserveAspectRatio="xMidYMid" width="85" height="85" viewBox="0 0 85 85">
  <defs>
    <style>
      .cls-1 {
        fill: #9bb7d6;
        opacity: 0.4;
      }

      .cls-1, .cls-2 {
        fill-rule: evenodd;
      }

      .cls-2 {
        fill: #5b8ab5;
      }
    </style>
  </defs>
  <g>
    <path d="M42.500,68.572 C28.123,68.572 16.427,56.876 16.427,42.500 C16.427,28.123 28.123,16.427 42.500,16.427 C56.877,16.427 68.573,28.123 68.573,42.500 C68.573,56.876 56.877,68.572 42.500,68.572 ZM59.369,57.685 L49.543,52.747 C49.035,52.492 48.598,52.685 48.434,52.779 C48.270,52.874 47.885,53.155 47.852,53.723 L47.215,64.715 C51.989,63.702 56.215,61.186 59.369,57.685 ZM20.904,35.477 C20.183,37.690 19.791,40.050 19.791,42.500 C19.791,44.950 20.183,47.310 20.904,49.523 L30.103,43.476 C30.578,43.163 30.629,42.689 30.629,42.500 C30.629,42.310 30.578,41.836 30.103,41.524 L20.904,35.477 ZM25.631,27.315 L35.456,32.252 C35.964,32.507 36.401,32.315 36.565,32.220 C36.729,32.125 37.114,31.844 37.147,31.276 L37.784,20.285 C33.010,21.298 28.785,23.814 25.631,27.315 ZM37.147,53.725 C37.114,53.157 36.729,52.876 36.565,52.781 C36.401,52.686 35.965,52.494 35.456,52.749 L25.631,57.685 C28.785,61.186 33.010,63.702 37.784,64.714 L37.147,53.725 ZM42.500,39.951 C41.094,39.951 39.951,41.094 39.951,42.500 C39.951,43.905 41.094,45.049 42.500,45.049 C43.905,45.049 45.049,43.906 45.049,42.500 C45.049,41.094 43.905,39.951 42.500,39.951 ZM47.214,20.285 L47.852,31.275 C47.885,31.842 48.270,32.124 48.434,32.219 C48.598,32.313 49.034,32.506 49.542,32.251 L59.369,27.315 C56.215,23.814 51.989,21.297 47.214,20.285 ZM54.896,41.524 C54.421,41.836 54.370,42.311 54.370,42.500 C54.370,42.689 54.421,43.163 54.896,43.476 L64.095,49.523 C64.816,47.311 65.208,44.950 65.208,42.500 C65.208,40.049 64.817,37.689 64.095,35.477 L54.896,41.524 Z" class="cls-1"/>
    <path d="M72.552,72.552 C64.525,80.579 53.852,85.000 42.500,85.000 C31.148,85.000 20.475,80.579 12.448,72.552 C4.421,64.525 -0.000,53.852 -0.000,42.500 C-0.000,31.148 4.421,20.475 12.448,12.448 C20.475,4.421 31.148,-0.000 42.500,-0.000 C53.852,-0.000 64.525,4.421 72.552,12.448 C80.579,20.475 85.000,31.148 85.000,42.500 C85.000,53.852 80.579,64.525 72.552,72.552 ZM42.500,3.364 C20.920,3.364 3.364,20.921 3.364,42.500 C3.364,64.079 20.920,81.636 42.500,81.636 C64.079,81.636 81.635,64.079 81.636,42.500 C81.636,20.921 64.079,3.364 42.500,3.364 ZM42.500,74.358 C24.933,74.358 10.642,60.067 10.642,42.500 C10.642,24.933 24.933,10.642 42.500,10.642 C60.066,10.642 74.358,24.933 74.358,42.500 C74.358,60.067 60.067,74.358 42.500,74.358 ZM42.500,14.006 C26.788,14.006 14.006,26.789 14.006,42.500 C14.006,58.211 26.788,70.994 42.500,70.994 C58.211,70.994 70.994,58.211 70.994,42.500 C70.994,26.788 58.211,14.006 42.500,14.006 ZM42.500,68.572 C28.123,68.572 16.427,56.876 16.427,42.500 C16.427,28.123 28.123,16.427 42.500,16.427 C56.877,16.427 68.573,28.123 68.573,42.500 C68.573,56.876 56.877,68.572 42.500,68.572 ZM59.369,57.685 L49.543,52.747 C49.035,52.492 48.598,52.685 48.434,52.779 C48.270,52.874 47.885,53.155 47.852,53.723 L47.215,64.715 C51.989,63.702 56.215,61.186 59.369,57.685 ZM37.784,64.714 L37.147,53.725 C37.114,53.157 36.729,52.876 36.565,52.781 C36.401,52.686 35.965,52.494 35.456,52.749 L25.631,57.685 C28.785,61.186 33.010,63.702 37.784,64.714 ZM19.791,42.500 C19.791,44.950 20.183,47.310 20.904,49.523 L30.103,43.476 C30.578,43.163 30.629,42.689 30.629,42.500 C30.629,42.310 30.578,41.836 30.103,41.524 L20.904,35.477 C20.183,37.690 19.791,40.050 19.791,42.500 ZM25.631,27.315 L35.456,32.252 C35.964,32.507 36.401,32.315 36.565,32.220 C36.729,32.125 37.114,31.844 37.147,31.276 L37.784,20.285 C33.010,21.298 28.785,23.814 25.631,27.315 ZM47.214,20.285 L47.852,31.275 C47.885,31.842 48.270,32.124 48.434,32.219 C48.598,32.313 49.034,32.506 49.542,32.251 L59.369,27.315 C56.215,23.814 51.989,21.297 47.214,20.285 ZM61.466,30.026 L51.053,35.257 C50.409,35.581 49.713,35.742 49.017,35.742 C48.235,35.742 47.454,35.538 46.752,35.132 C45.426,34.367 44.582,32.998 44.493,31.470 L43.818,19.831 C43.381,19.806 42.942,19.792 42.500,19.792 C42.057,19.792 41.617,19.806 41.180,19.831 L40.505,31.471 C40.417,32.999 39.572,34.368 38.247,35.134 C37.545,35.539 36.764,35.743 35.981,35.743 C35.286,35.743 34.589,35.582 33.946,35.259 L23.534,30.027 C23.050,30.759 22.608,31.521 22.211,32.309 L31.951,38.712 C33.230,39.553 33.994,40.969 33.994,42.500 C33.994,44.030 33.230,45.446 31.951,46.287 L22.211,52.690 C22.608,53.479 23.051,54.241 23.534,54.974 L33.946,49.742 C35.314,49.055 36.922,49.102 38.247,49.867 C39.573,50.633 40.417,52.002 40.506,53.530 L41.181,65.169 C41.617,65.194 42.057,65.208 42.500,65.208 C42.942,65.208 43.382,65.194 43.818,65.169 L44.493,53.528 C44.582,52.000 45.426,50.631 46.752,49.865 C48.078,49.100 49.686,49.053 51.053,49.741 L61.466,54.973 C61.949,54.241 62.391,53.479 62.789,52.691 L53.048,46.287 C51.769,45.446 51.005,44.030 51.005,42.500 C51.005,40.969 51.769,39.553 53.048,38.712 L62.789,32.309 C62.391,31.521 61.949,30.759 61.466,30.026 ZM54.896,41.524 C54.421,41.836 54.370,42.311 54.370,42.500 C54.370,42.689 54.421,43.163 54.896,43.476 L64.095,49.523 C64.816,47.311 65.208,44.950 65.208,42.500 C65.208,40.049 64.817,37.689 64.095,35.477 L54.896,41.524 ZM42.500,48.413 C39.239,48.413 36.586,45.761 36.586,42.500 C36.586,39.239 39.239,36.587 42.500,36.587 C45.761,36.587 48.413,39.239 48.413,42.500 C48.413,45.761 45.761,48.413 42.500,48.413 ZM42.500,39.951 C41.094,39.951 39.951,41.094 39.951,42.500 C39.951,43.905 41.094,45.049 42.500,45.049 C43.905,45.049 45.049,43.906 45.049,42.500 C45.049,41.094 43.905,39.951 42.500,39.951 Z" class="cls-2"/>
  </g>
</svg>
