<svg xmlns="http://www.w3.org/2000/svg" xmlns:xlink="http://www.w3.org/1999/xlink" preserveAspectRatio="xMidYMid" width="86" height="60" viewBox="0 0 86 60">
  <defs>
    <style>
      .cls-1 {
        fill: #9bb7d6;
        opacity: 0.4;
      }

      .cls-1, .cls-2 {
        fill-rule: evenodd;
      }

      .cls-2 {
        fill: #5b8ab5;
      }
    </style>
  </defs>
  <g>
    <path d="M77.812,48.652 L77.812,22.141 C80.018,22.845 81.617,24.887 81.617,27.289 L81.617,43.505 C81.617,45.907 80.018,47.948 77.812,48.652 ZM52.253,6.557 L31.399,6.557 L31.399,4.329 L52.253,4.329 L52.253,6.557 ZM3.383,33.424 L7.184,33.424 L7.184,37.369 L3.383,37.369 L3.383,33.424 ZM63.228,23.457 L63.228,56.671 L31.565,56.671 L31.116,56.100 L63.228,23.457 ZM74.429,37.369 L70.990,37.369 L70.990,33.424 L74.429,33.424 L74.429,37.369 Z" class="cls-1"/>
    <path d="M76.121,18.549 C75.187,18.549 74.429,19.294 74.429,20.214 L74.429,30.094 L70.990,30.094 L70.990,21.748 C70.990,20.829 70.233,20.083 69.299,20.083 L61.451,20.083 L59.989,15.286 C59.775,14.582 59.116,14.100 58.369,14.100 L46.421,14.100 L46.421,9.887 L53.944,9.887 C54.879,9.887 55.636,9.142 55.636,8.222 L55.636,2.664 C55.636,1.744 54.879,0.999 53.944,0.999 L29.707,0.999 C28.773,0.999 28.016,1.744 28.016,2.664 L28.016,8.222 C28.016,9.142 28.773,9.887 29.707,9.887 L37.231,9.887 L37.231,14.100 L19.806,14.100 C19.186,14.100 18.616,14.433 18.320,14.969 L15.492,20.083 L8.876,20.083 C7.942,20.083 7.184,20.829 7.184,21.748 L7.184,30.094 L3.383,30.094 L3.383,18.191 C3.383,17.272 2.626,16.526 1.691,16.526 C0.757,16.526 -0.000,17.272 -0.000,18.191 L-0.000,52.603 C-0.000,53.522 0.757,54.268 1.691,54.268 C2.626,54.268 3.383,53.522 3.383,52.603 L3.383,40.699 L7.184,40.699 L7.184,49.513 C7.184,50.432 7.942,51.178 8.876,51.178 L22.960,51.178 L29.399,59.356 C29.719,59.763 30.213,60.001 30.736,60.001 L69.299,60.001 C70.233,60.001 70.990,59.256 70.990,58.336 L70.990,40.700 L74.429,40.700 L74.429,50.580 C74.429,51.499 75.187,52.245 76.121,52.245 C81.017,52.245 85.000,48.324 85.000,43.505 L85.000,27.290 C85.000,22.470 81.017,18.549 76.121,18.549 ZM3.383,37.369 L3.383,33.424 L7.184,33.424 L7.184,37.369 L3.383,37.369 ZM31.399,4.329 L52.253,4.329 L52.253,6.557 L31.399,6.557 L31.399,4.329 ZM40.614,9.887 L43.038,9.887 L43.038,14.100 L40.614,14.100 L40.614,9.887 ZM10.567,23.413 L11.769,23.413 L11.769,47.848 L10.567,47.848 L10.567,23.413 ZM25.126,48.493 C24.805,48.086 24.312,47.848 23.789,47.848 L15.152,47.848 L15.152,23.413 L16.498,23.413 C17.117,23.413 17.688,23.080 17.983,22.544 L20.811,17.430 L57.110,17.430 L58.572,22.227 C58.787,22.931 59.445,23.413 60.193,23.413 L63.228,23.413 L63.228,56.671 L31.565,56.671 L25.126,48.493 ZM67.607,56.671 L66.611,56.671 L66.611,23.413 L67.607,23.413 L67.607,56.671 ZM70.990,37.369 L70.990,33.424 L74.429,33.424 L74.429,37.369 L70.990,37.369 ZM81.617,43.505 C81.617,45.907 80.018,47.948 77.812,48.652 L77.812,22.141 C80.018,22.845 81.617,24.887 81.617,27.289 L81.617,43.505 Z" class="cls-2"/>
    <path d="M84.243,3.446 L80.938,0.363 C80.689,0.131 80.352,0.001 80.000,0.001 C79.648,0.001 79.310,0.131 79.062,0.363 L75.757,3.446 C74.624,4.503 73.999,5.909 73.999,7.404 C73.999,8.900 74.624,10.305 75.757,11.363 C76.927,12.454 78.463,13.000 80.000,13.000 C81.536,13.000 83.073,12.454 84.243,11.363 C85.376,10.305 86.000,8.900 86.000,7.404 C86.000,5.909 85.376,4.503 84.243,3.446 ZM82.366,9.612 C81.061,10.830 78.938,10.830 77.633,9.612 C77.001,9.023 76.653,8.238 76.653,7.404 C76.653,6.571 77.001,5.786 77.633,5.197 L80.000,2.989 L82.366,5.197 C82.998,5.786 83.346,6.571 83.346,7.404 C83.346,8.238 82.998,9.023 82.366,9.612 Z" class="cls-2"/>
  </g>
</svg>
