<svg xmlns="http://www.w3.org/2000/svg" xmlns:xlink="http://www.w3.org/1999/xlink" preserveAspectRatio="xMidYMid" width="98" height="48" viewBox="0 0 98 48">
  <defs>
    <style>
      .cls-1 {
        fill: #9bb7d6;
        opacity: 0.4;
      }

      .cls-1, .cls-2 {
        fill-rule: evenodd;
      }

      .cls-2 {
        fill: #5b8ab5;
      }
    </style>
  </defs>
  <g>
    <path d="M69.236,42.070 L76.231,39.983 L85.470,39.983 C86.521,39.983 87.373,39.117 87.373,38.048 C87.373,36.980 86.521,36.114 85.470,36.114 L58.513,36.114 C57.462,36.114 56.610,36.980 56.610,38.048 C56.610,39.117 57.462,39.983 58.513,39.983 L62.714,39.983 L57.027,41.680 C54.351,41.632 51.675,41.606 49.000,41.606 C42.203,41.606 35.406,41.764 28.618,42.077 L35.634,39.984 L44.875,39.984 C45.926,39.984 46.778,39.117 46.778,38.049 C46.778,36.980 45.926,36.114 44.875,36.114 L17.917,36.114 C16.866,36.114 16.014,36.980 16.014,38.049 C16.014,39.117 16.866,39.984 17.917,39.984 L22.047,39.984 L11.087,43.236 C8.764,43.436 6.442,43.652 4.123,43.889 L9.302,6.205 C14.312,5.612 19.334,5.133 24.364,4.766 L22.209,9.261 L12.740,12.343 C11.739,12.669 11.187,13.758 11.508,14.776 C11.766,15.598 12.514,16.121 13.320,16.121 C13.512,16.121 13.707,16.091 13.900,16.029 L19.902,14.075 L17.318,19.465 C17.063,19.996 17.061,20.616 17.312,21.149 C17.563,21.682 18.040,22.069 18.607,22.200 L22.413,23.079 L18.569,27.399 C17.864,28.192 17.924,29.415 18.704,30.132 C19.068,30.467 19.524,30.632 19.980,30.632 C20.499,30.632 21.016,30.417 21.392,29.995 L27.417,23.223 C27.871,22.714 28.024,21.998 27.821,21.343 C27.617,20.687 27.087,20.191 26.428,20.039 L21.791,18.967 L28.737,4.476 C34.850,4.109 40.973,3.909 47.097,3.875 L47.097,7.515 L40.147,7.515 C38.445,7.515 37.060,8.923 37.060,10.654 L37.060,14.372 C37.060,16.103 38.445,17.511 40.147,17.511 L57.852,17.511 C59.555,17.511 60.940,16.103 60.940,14.372 L60.940,10.654 C60.940,8.923 59.555,7.515 57.852,7.515 L50.903,7.515 L50.903,3.875 C63.530,3.946 76.153,4.721 88.698,6.205 L93.876,43.889 C85.686,43.052 77.467,42.447 69.236,42.070 Z" class="cls-1"/>
    <path d="M97.981,45.800 L92.264,4.191 C92.144,3.322 91.464,2.643 90.607,2.538 C62.999,-0.849 35.001,-0.849 7.393,2.538 C6.535,2.643 5.855,3.322 5.736,4.191 L0.018,45.800 C-0.063,46.389 0.128,46.985 0.535,47.413 C0.942,47.841 1.520,48.054 2.103,47.991 C33.221,44.637 64.778,44.637 95.896,47.991 C95.963,47.999 96.030,48.002 96.097,48.002 C96.610,48.002 97.104,47.791 97.464,47.412 C97.872,46.984 98.063,46.389 97.981,45.800 ZM57.134,11.384 L57.134,13.641 L40.865,13.641 L40.865,11.384 L57.134,11.384 ZM69.236,42.070 L76.231,39.983 L85.470,39.983 C86.521,39.983 87.373,39.117 87.373,38.048 C87.373,36.980 86.521,36.114 85.470,36.114 L58.513,36.114 C57.462,36.114 56.610,36.980 56.610,38.048 C56.610,39.117 57.462,39.983 58.513,39.983 L62.714,39.983 L57.027,41.680 C54.351,41.632 51.675,41.606 49.000,41.606 C42.203,41.606 35.406,41.764 28.618,42.077 L35.634,39.984 L44.875,39.984 C45.926,39.984 46.778,39.117 46.778,38.049 C46.778,36.980 45.926,36.114 44.875,36.114 L17.917,36.114 C16.866,36.114 16.014,36.980 16.014,38.049 C16.014,39.117 16.866,39.984 17.917,39.984 L22.047,39.984 L11.087,43.236 C8.764,43.436 6.442,43.652 4.123,43.889 L9.302,6.205 C14.312,5.612 19.334,5.133 24.364,4.766 L22.209,9.261 L12.740,12.343 C11.739,12.669 11.187,13.758 11.508,14.776 C11.766,15.598 12.514,16.121 13.320,16.121 C13.512,16.121 13.707,16.091 13.900,16.029 L19.902,14.075 L17.318,19.465 C17.063,19.996 17.061,20.616 17.312,21.149 C17.563,21.682 18.040,22.069 18.607,22.200 L22.413,23.079 L18.569,27.399 C17.864,28.192 17.924,29.415 18.704,30.132 C19.068,30.467 19.524,30.632 19.980,30.632 C20.499,30.632 21.016,30.417 21.392,29.995 L27.417,23.223 C27.871,22.714 28.024,21.998 27.821,21.343 C27.617,20.687 27.087,20.191 26.428,20.039 L21.791,18.967 L28.737,4.476 C34.850,4.109 40.973,3.909 47.097,3.875 L47.097,7.515 L40.147,7.515 C38.445,7.515 37.060,8.923 37.060,10.654 L37.060,14.372 C37.060,16.103 38.445,17.511 40.147,17.511 L57.852,17.511 C59.555,17.511 60.940,16.103 60.940,14.372 L60.940,10.654 C60.940,8.923 59.555,7.515 57.852,7.515 L50.903,7.515 L50.903,3.875 C63.530,3.946 76.153,4.721 88.698,6.205 L93.876,43.889 C85.686,43.052 77.467,42.447 69.236,42.070 Z" class="cls-2"/>
  </g>
</svg>
