<svg xmlns="http://www.w3.org/2000/svg" xmlns:xlink="http://www.w3.org/1999/xlink" preserveAspectRatio="xMidYMid" width="96" height="68" viewBox="0 0 96 68">
  <defs>
    <style>
      .cls-1 {
        fill: #9bb7d6;
        opacity: 0.4;
      }

      .cls-1, .cls-2 {
        fill-rule: evenodd;
      }

      .cls-2 {
        fill: #5b8ab5;
      }
    </style>
  </defs>
  <g>
    <path d="M72.777,11.691 C72.646,11.691 72.540,11.586 72.540,11.456 L72.540,3.927 C72.540,3.797 72.646,3.691 72.777,3.691 L92.059,3.691 C92.190,3.691 92.296,3.797 92.296,3.927 L92.296,11.456 C92.296,11.586 92.190,11.691 92.059,11.691 L72.777,11.691 L72.777,11.691 ZM3.940,11.691 C3.810,11.691 3.704,11.586 3.704,11.456 L3.704,3.927 C3.704,3.797 3.810,3.691 3.940,3.691 L23.223,3.691 C23.354,3.691 23.460,3.797 23.460,3.927 L23.460,11.456 C23.460,11.586 23.354,11.691 23.223,11.691 L3.940,11.691 L3.940,11.691 ZM23.224,56.309 C23.354,56.309 23.460,56.414 23.460,56.544 L23.460,64.073 C23.460,64.203 23.354,64.309 23.224,64.309 L3.941,64.309 C3.810,64.309 3.704,64.203 3.704,64.073 L3.704,56.544 C3.704,56.414 3.810,56.309 3.941,56.309 L23.224,56.309 ZM92.059,56.309 C92.190,56.309 92.296,56.414 92.296,56.544 L92.296,64.073 C92.296,64.203 92.190,64.309 92.059,64.309 L72.777,64.309 C72.646,64.309 72.540,64.203 72.540,64.073 L72.540,56.544 C72.540,56.414 72.646,56.309 72.777,56.309 L92.059,56.309 Z" class="cls-1"/>
    <path d="M68.836,56.544 L68.836,64.073 C68.836,66.239 70.604,68.001 72.777,68.001 L92.059,68.001 C94.232,68.001 96.000,66.239 96.000,64.073 L96.000,56.544 C96.000,54.378 94.232,52.616 92.059,52.616 L84.269,52.616 L84.269,40.512 C87.117,39.707 89.209,37.093 89.209,34.000 C89.209,30.907 87.116,28.294 84.269,27.488 L84.269,15.384 L92.059,15.384 C94.232,15.384 96.000,13.622 96.000,11.456 L96.000,3.927 C96.000,1.761 94.232,-0.001 92.059,-0.001 L72.777,-0.001 C70.604,-0.001 68.836,1.761 68.836,3.927 L68.836,11.456 C68.836,13.622 70.604,15.384 72.777,15.384 L80.565,15.384 L80.565,27.488 C78.307,28.128 76.527,29.904 75.885,32.154 L45.047,32.154 C44.000,29.283 40.557,27.230 36.354,27.230 C32.152,27.230 28.709,29.283 27.662,32.154 L20.114,32.154 C19.473,29.903 17.692,28.127 15.434,27.488 L15.434,15.384 L23.223,15.384 C25.396,15.384 27.164,13.622 27.164,11.456 L27.164,3.927 C27.164,1.761 25.396,-0.001 23.223,-0.001 L3.940,-0.001 C1.768,-0.001 -0.000,1.761 -0.000,3.927 L-0.000,11.456 C-0.000,13.622 1.768,15.384 3.940,15.384 L11.729,15.384 L11.729,27.488 C8.883,28.294 6.791,30.907 6.791,34.000 C6.791,37.092 8.883,39.705 11.729,40.511 L11.729,52.616 L3.940,52.616 C1.768,52.616 -0.000,54.378 -0.000,56.544 L-0.000,64.073 C-0.000,66.239 1.768,68.001 3.940,68.001 L23.223,68.001 C25.396,68.001 27.164,66.239 27.164,64.073 L27.164,56.544 C27.164,54.378 25.396,52.616 23.223,52.616 L15.434,52.616 L15.434,40.512 C17.692,39.873 19.473,38.097 20.114,35.846 L27.663,35.846 C28.709,38.717 32.152,40.769 36.354,40.769 C40.556,40.769 44.000,38.717 45.046,35.846 L75.886,35.846 C76.527,38.096 78.307,39.872 80.565,40.511 L80.565,52.616 L72.777,52.616 C70.604,52.616 68.836,54.378 68.836,56.544 ZM72.777,11.691 C72.646,11.691 72.540,11.586 72.540,11.456 L72.540,3.927 C72.540,3.797 72.646,3.691 72.777,3.691 L92.059,3.691 C92.190,3.691 92.296,3.797 92.296,3.927 L92.296,11.456 C92.296,11.586 92.190,11.691 92.059,11.691 L72.777,11.691 L72.777,11.691 ZM3.940,11.691 C3.810,11.691 3.704,11.586 3.704,11.456 L3.704,3.927 C3.704,3.797 3.810,3.691 3.940,3.691 L23.223,3.691 C23.354,3.691 23.460,3.797 23.460,3.927 L23.460,11.456 C23.460,11.586 23.354,11.691 23.223,11.691 L3.940,11.691 L3.940,11.691 ZM23.224,56.309 C23.354,56.309 23.460,56.414 23.460,56.544 L23.460,64.073 C23.460,64.203 23.354,64.309 23.224,64.309 L3.941,64.309 C3.810,64.309 3.704,64.203 3.704,64.073 L3.704,56.544 C3.704,56.414 3.810,56.309 3.941,56.309 L23.224,56.309 ZM13.582,37.077 C11.880,37.077 10.495,35.697 10.495,34.000 C10.495,32.304 11.880,30.923 13.582,30.923 C15.284,30.923 16.669,32.304 16.669,34.000 C16.669,35.697 15.284,37.077 13.582,37.077 ZM31.038,34.000 C31.038,32.544 33.221,30.923 36.355,30.923 C39.488,30.923 41.672,32.545 41.672,34.000 C41.672,35.456 39.488,37.077 36.355,37.077 C33.221,37.077 31.038,35.455 31.038,34.000 ZM79.331,34.000 C79.331,32.303 80.716,30.923 82.418,30.923 C84.120,30.923 85.505,32.303 85.505,34.000 C85.505,35.697 84.120,37.077 82.418,37.077 C80.716,37.077 79.331,35.697 79.331,34.000 ZM92.059,56.309 C92.190,56.309 92.296,56.414 92.296,56.544 L92.296,64.073 C92.296,64.203 92.190,64.309 92.059,64.309 L72.777,64.309 C72.646,64.309 72.540,64.203 72.540,64.073 L72.540,56.544 C72.540,56.414 72.646,56.309 72.777,56.309 L92.059,56.309 Z" class="cls-2"/>
  </g>
</svg>
