<svg xmlns="http://www.w3.org/2000/svg" xmlns:xlink="http://www.w3.org/1999/xlink" preserveAspectRatio="xMidYMid" width="64" height="78" viewBox="0 0 64 78">
  <defs>
    <style>
      .cls-1 {
        fill: #9bb7d6;
        opacity: 0.4;
      }

      .cls-1, .cls-2 {
        fill-rule: evenodd;
      }

      .cls-2 {
        fill: #5b8ab5;
      }
    </style>
  </defs>
  <g>
    <path d="M55.101,41.278 C55.101,41.674 54.782,41.996 54.390,41.996 L48.552,41.996 C48.160,41.996 47.840,41.674 47.840,41.278 L47.840,40.158 L53.278,40.158 C53.903,40.158 54.513,40.080 55.100,39.935 L55.100,41.278 L55.101,41.278 ZM6.486,33.776 L57.514,33.776 C56.904,35.569 55.209,36.838 53.279,36.838 L10.721,36.838 C8.790,36.838 7.096,35.569 6.486,33.776 ZM49.728,30.457 L48.840,27.585 L58.464,27.585 L58.061,30.457 L49.728,30.457 ZM15.160,27.585 L14.272,30.457 L5.939,30.457 L5.536,27.585 L15.160,27.585 ZM15.233,7.389 C15.999,5.695 17.529,4.435 19.326,4.018 C23.354,3.086 40.647,3.086 44.673,4.018 C46.471,4.435 48.001,5.695 48.767,7.389 L52.463,15.560 L11.537,15.560 L15.233,7.389 ZM8.898,41.278 L8.898,39.935 C9.486,40.080 10.096,40.158 10.721,40.158 L16.160,40.158 L16.160,41.278 C16.160,41.674 15.841,41.996 15.449,41.996 L9.610,41.996 C9.217,41.996 8.898,41.674 8.898,41.278 ZM36.382,54.852 L27.618,54.852 L27.618,51.776 L36.382,51.776 L36.382,54.852 ZM60.713,48.456 L3.287,48.456 L3.287,45.316 L60.713,45.316 L60.713,48.456 Z" class="cls-1"/>
    <path d="M62.356,51.776 L39.668,51.776 L39.668,56.512 C39.668,57.428 38.933,58.171 38.025,58.171 L36.230,58.171 L36.230,76.340 C36.230,77.257 35.495,78.000 34.587,78.000 C33.679,78.000 32.944,77.257 32.944,76.340 L32.944,58.171 L31.057,58.171 L31.057,76.340 C31.057,77.257 30.322,78.000 29.414,78.000 C28.506,78.000 27.771,77.257 27.771,76.340 L27.771,58.171 L25.975,58.171 C25.067,58.171 24.331,57.428 24.331,56.512 L24.331,51.776 L1.644,51.776 C0.736,51.776 0.001,51.033 0.001,50.116 L0.001,43.656 C0.001,42.739 0.736,41.996 1.644,41.996 L5.676,41.996 C5.634,41.763 5.611,41.523 5.611,41.278 L5.611,38.203 C4.253,37.001 3.303,35.326 3.035,33.418 L2.015,26.159 C1.707,23.961 2.450,21.711 4.004,20.142 L6.292,17.831 L4.149,17.569 C2.362,17.351 1.015,15.816 1.015,13.999 C1.015,12.016 2.612,10.402 4.575,10.402 L6.746,10.402 C7.914,10.402 8.950,10.975 9.600,11.855 L12.243,6.010 C13.431,3.383 15.804,1.429 18.592,0.783 C23.103,-0.261 40.896,-0.261 45.408,0.783 C48.195,1.429 50.569,3.383 51.756,6.010 L54.400,11.856 C55.050,10.976 56.085,10.402 57.254,10.402 L59.424,10.402 C61.388,10.402 62.985,12.015 62.985,13.999 C62.985,15.816 61.638,17.351 59.851,17.569 L57.707,17.831 L59.995,20.142 C61.550,21.711 62.293,23.961 61.984,26.159 L60.965,33.418 C60.697,35.326 59.746,37.001 58.388,38.204 L58.388,41.278 C58.388,41.523 58.365,41.763 58.323,41.996 L62.356,41.996 C63.264,41.996 63.999,42.739 63.999,43.656 L63.999,50.116 C63.999,51.033 63.264,51.776 62.356,51.776 ZM27.618,54.852 L36.382,54.852 L36.382,51.776 L27.618,51.776 L27.618,54.852 ZM5.939,30.457 L14.272,30.457 L15.160,27.585 L5.536,27.585 L5.939,30.457 ZM10.721,36.838 L53.279,36.838 C55.209,36.838 56.904,35.569 57.514,33.776 L6.486,33.776 C7.096,35.569 8.790,36.838 10.721,36.838 ZM8.898,39.935 L8.898,41.278 C8.898,41.674 9.217,41.996 9.610,41.996 L15.449,41.996 C15.841,41.996 16.160,41.674 16.160,41.278 L16.160,40.158 L10.721,40.158 C10.096,40.158 9.486,40.080 8.898,39.935 ZM19.382,41.996 L44.619,41.996 C44.577,41.763 44.554,41.523 44.554,41.278 L44.554,40.158 L19.447,40.158 L19.447,41.278 C19.447,41.523 19.424,41.763 19.382,41.996 ZM47.840,40.158 L47.840,41.278 C47.840,41.674 48.160,41.996 48.552,41.996 L54.390,41.996 C54.782,41.996 55.101,41.674 55.101,41.278 L55.100,41.278 L55.100,39.935 C54.513,40.080 53.903,40.158 53.278,40.158 L47.840,40.158 ZM46.285,30.457 L45.396,27.585 L18.604,27.585 L17.715,30.457 L46.285,30.457 ZM7.021,13.999 C7.021,13.846 6.898,13.722 6.746,13.722 L4.575,13.722 C4.424,13.722 4.301,13.846 4.301,13.999 C4.301,14.139 4.405,14.257 4.543,14.274 L7.021,14.576 L7.021,13.999 ZM48.767,7.389 C48.001,5.695 46.471,4.435 44.673,4.018 C40.647,3.086 23.354,3.086 19.326,4.018 C17.529,4.435 15.999,5.695 15.233,7.389 L11.537,15.560 L52.463,15.560 L48.767,7.389 ZM59.457,14.274 C59.595,14.257 59.699,14.139 59.699,13.999 C59.699,13.846 59.576,13.722 59.424,13.722 L57.254,13.722 C57.102,13.722 56.979,13.846 56.979,13.999 L56.979,13.999 L56.979,14.576 L59.457,14.274 ZM57.671,22.489 L54.098,18.880 L9.902,18.880 L6.329,22.489 C5.841,22.982 5.504,23.601 5.343,24.265 L58.657,24.265 C58.496,23.601 58.159,22.982 57.671,22.489 ZM58.464,27.585 L48.840,27.585 L49.728,30.457 L58.061,30.457 L58.464,27.585 ZM60.713,45.316 L3.287,45.316 L3.287,48.456 L60.713,48.456 L60.713,45.316 ZM9.171,54.146 C9.465,53.633 10.007,53.317 10.594,53.317 C11.182,53.317 11.724,53.633 12.017,54.146 L18.277,65.096 C18.570,65.610 18.570,66.243 18.277,66.756 C17.983,67.270 17.441,67.586 16.854,67.586 L15.250,67.586 L15.250,76.340 C15.250,77.257 14.515,78.000 13.607,78.000 C12.699,78.000 11.964,77.257 11.964,76.340 L11.964,65.926 C11.964,65.010 12.699,64.267 13.607,64.267 L14.007,64.267 L10.594,58.296 L7.182,64.267 L7.582,64.267 C8.489,64.267 9.225,65.010 9.225,65.926 L9.225,76.340 C9.225,77.257 8.489,78.000 7.582,78.000 C6.674,78.000 5.939,77.257 5.939,76.340 L5.939,67.586 L4.335,67.586 C3.748,67.586 3.205,67.270 2.912,66.756 C2.618,66.243 2.618,65.610 2.912,65.096 L9.171,54.146 ZM52.169,54.146 C52.462,53.633 53.005,53.317 53.592,53.317 C54.179,53.317 54.722,53.633 55.015,54.146 L61.274,65.096 C61.568,65.610 61.568,66.243 61.274,66.756 C60.981,67.270 60.438,67.586 59.851,67.586 L58.248,67.586 L58.248,76.340 C58.248,77.257 57.512,78.000 56.605,78.000 C55.697,78.000 54.961,77.257 54.961,76.340 L54.961,65.926 C54.961,65.010 55.697,64.267 56.605,64.267 L57.005,64.267 L53.592,58.296 L50.179,64.267 L50.579,64.267 C51.487,64.267 52.223,65.010 52.223,65.926 L52.223,76.340 C52.223,77.257 51.487,78.000 50.579,78.000 C49.672,78.000 48.936,77.257 48.936,76.340 L48.936,67.586 L47.333,67.586 C46.745,67.586 46.203,67.270 45.910,66.756 C45.616,66.243 45.616,65.610 45.910,65.096 L52.169,54.146 Z" class="cls-2"/>
  </g>
</svg>
