<svg width="18" height="9" viewBox="0 0 18 9">
  <path d="M11.781,0.443 L12.240,5.326 L12.240,0.340 C12.240,0.152 12.401,-0.000 12.600,-0.000 L16.500,-0.000 C16.663,-0.000 16.805,0.103 16.847,0.251 L17.988,4.217 C17.996,4.246 18.000,4.276 18.000,4.306 L18.000,7.026 C18.000,7.214 17.839,7.366 17.640,7.366 L16.564,7.366 C16.574,7.431 16.579,7.497 16.579,7.565 C16.579,8.356 15.898,9.000 15.060,9.000 C14.222,9.000 13.541,8.356 13.541,7.565 C13.541,7.497 13.546,7.431 13.556,7.366 L7.442,7.366 C7.451,7.431 7.457,7.497 7.457,7.565 C7.457,8.356 6.775,9.000 5.937,9.000 C5.099,9.000 4.418,8.356 4.418,7.565 C4.418,7.497 4.423,7.431 4.433,7.366 L3.982,7.366 C3.992,7.431 3.997,7.497 3.997,7.565 C3.997,8.356 3.315,9.000 2.478,9.000 C1.640,9.000 0.958,8.356 0.958,7.565 C0.958,7.497 0.964,7.431 0.973,7.366 L0.360,7.366 C0.161,7.366 -0.000,7.214 -0.000,7.026 L-0.000,5.666 C-0.000,5.478 0.161,5.326 0.360,5.326 L0.553,0.414 M16.225,0.680 L14.880,0.680 L14.880,3.407 L17.138,3.858 L16.225,0.680 ZM15.060,8.320 C15.501,8.320 15.859,7.981 15.859,7.565 C15.859,7.149 15.501,6.810 15.060,6.810 C14.619,6.810 14.261,7.149 14.261,7.565 C14.261,7.981 14.619,8.320 15.060,8.320 ZM15.060,6.130 C15.547,6.130 15.981,6.348 16.260,6.686 L13.861,6.686 C14.139,6.348 14.573,6.130 15.060,6.130 ZM5.937,8.320 C6.378,8.320 6.736,7.981 6.736,7.565 C6.736,7.149 6.378,6.810 5.937,6.810 C5.496,6.810 5.138,7.149 5.138,7.565 C5.138,7.981 5.496,8.320 5.937,8.320 ZM2.478,8.320 C2.918,8.320 3.277,7.981 3.277,7.565 C3.277,7.149 2.918,6.810 2.478,6.810 C2.037,6.810 1.678,7.149 1.678,7.565 C1.678,7.981 2.037,8.320 2.478,8.320 ZM0.720,6.686 L1.278,6.686 C1.556,6.348 1.990,6.130 2.478,6.130 C2.965,6.130 3.399,6.348 3.677,6.686 L4.738,6.686 C5.016,6.348 5.450,6.130 5.937,6.130 C6.424,6.130 6.859,6.348 7.137,6.686 L12.240,6.686 L0.720,6.686 Z"/>
</svg>