<svg xmlns="http://www.w3.org/2000/svg" xmlns:xlink="http://www.w3.org/1999/xlink" preserveAspectRatio="xMidYMid" width="21" height="21" viewBox="0 0 21 21">
  <defs>
    <style>
      .cls-1 {
        fill: #76777b;
        fill-rule: evenodd;
      }
    </style>
  </defs>
  <path d="M19.950,4.200 L17.850,4.200 L17.850,13.650 L4.200,13.650 L4.200,15.750 C4.200,16.380 4.620,16.800 5.250,16.800 L16.800,16.800 L21.000,21.000 L21.000,5.250 C21.000,4.620 20.580,4.200 19.950,4.200 ZM15.750,10.500 L15.750,1.050 C15.750,0.420 15.330,-0.000 14.700,-0.000 L1.050,-0.000 C0.420,-0.000 -0.000,0.420 -0.000,1.050 L-0.000,15.750 L4.200,11.550 L14.700,11.550 C15.330,11.550 15.750,11.130 15.750,10.500 Z" class="cls-1"/>
</svg>
