<svg xmlns="http://www.w3.org/2000/svg" xmlns:xlink="http://www.w3.org/1999/xlink" preserveAspectRatio="xMidYMid" width="14" height="14" viewBox="0 0 14 14">
  <defs>
    <style>
      .cls-1 {
        fill: #76777b;
        fill-rule: evenodd;
      }
    </style>
  </defs>
  <path d="M2.800,6.067 C3.889,8.244 5.755,10.033 7.933,11.200 L9.644,9.489 C9.878,9.255 10.189,9.178 10.422,9.333 C11.278,9.644 12.211,9.800 13.222,9.800 C13.689,9.800 14.000,10.111 14.000,10.578 L14.000,13.222 C14.000,13.689 13.689,14.000 13.222,14.000 C5.911,14.000 -0.000,8.089 -0.000,0.778 C-0.000,0.311 0.311,-0.000 0.778,-0.000 L3.500,-0.000 C3.966,-0.000 4.278,0.311 4.278,0.778 C4.278,1.711 4.433,2.644 4.744,3.578 C4.822,3.811 4.744,4.122 4.589,4.355 L2.800,6.067 Z" class="cls-1"/>
</svg>
