<svg xmlns="http://www.w3.org/2000/svg" xmlns:xlink="http://www.w3.org/1999/xlink" preserveAspectRatio="xMidYMid" width="22" height="20" viewBox="0 0 22 20">
  <defs>
    <style>
      .cls-1 {
        fill: #76777b;
        fill-rule: evenodd;
      }
    </style>
  </defs>
  <path d="M18.700,5.556 L3.300,5.556 C1.430,5.556 -0.000,7.000 -0.000,8.889 L-0.000,15.556 L4.400,15.556 L4.400,20.000 L17.600,20.000 L17.600,15.556 L22.000,15.556 L22.000,8.889 C22.000,7.000 20.570,5.556 18.700,5.556 ZM15.400,17.778 L6.600,17.778 L6.600,12.222 L15.400,12.222 L15.400,17.778 ZM18.700,10.000 C18.040,10.000 17.600,9.556 17.600,8.889 C17.600,8.222 18.040,7.778 18.700,7.778 C19.360,7.778 19.800,8.222 19.800,8.889 C19.800,9.556 19.360,10.000 18.700,10.000 ZM17.600,-0.000 L4.400,-0.000 L4.400,4.444 L17.600,4.444 L17.600,-0.000 Z" class="cls-1"/>
</svg>
