<svg xmlns="http://www.w3.org/2000/svg" xmlns:xlink="http://www.w3.org/1999/xlink" preserveAspectRatio="xMidYMid" width="22" height="14" viewBox="0 0 22 14">
  <defs>
    <style>
      .cls-1 {
        fill: #76777b;
        fill-rule: evenodd;
      }
    </style>
  </defs>
  <path d="M11.003,-0.009 C6.001,-0.009 1.700,2.888 -0.000,7.000 C1.700,11.112 6.001,14.009 11.003,14.009 C16.004,14.009 20.305,11.112 22.005,7.000 C20.305,2.888 16.004,-0.009 11.003,-0.009 ZM11.003,11.673 C8.202,11.673 6.001,9.617 6.001,7.000 C6.001,4.383 8.202,2.327 11.003,2.327 C13.803,2.327 16.004,4.383 16.004,7.000 C16.004,9.617 13.803,11.673 11.003,11.673 ZM11.003,4.196 C9.302,4.196 8.002,5.411 8.002,7.000 C8.002,8.589 9.302,9.804 11.003,9.804 C12.703,9.804 14.003,8.589 14.003,7.000 C14.003,5.411 12.703,4.196 11.003,4.196 Z" class="cls-1"/>
</svg>
