<svg xmlns="http://www.w3.org/2000/svg" xmlns:xlink="http://www.w3.org/1999/xlink" preserveAspectRatio="xMidYMid" width="85" height="59" viewBox="0 0 85 59">
  <defs>
    <style>
      .cls-1 {
        fill: #9bb7d6;
        opacity: 0.4;
      }

      .cls-1, .cls-2 {
        fill-rule: evenodd;
      }

      .cls-2 {
        fill: #5b8ab5;
      }
    </style>
  </defs>
  <g>
    <path d="M77.812,47.652 L77.812,21.141 C80.018,21.845 81.617,23.887 81.617,26.289 L81.617,42.505 C81.617,44.907 80.018,46.948 77.812,47.652 ZM52.253,5.557 L31.399,5.557 L31.399,3.329 L52.253,3.329 L52.253,5.557 ZM3.383,32.424 L7.184,32.424 L7.184,36.369 L3.383,36.369 L3.383,32.424 ZM63.228,22.458 L63.228,55.671 L31.565,55.671 L31.116,55.100 L63.228,22.458 ZM74.429,36.369 L70.990,36.369 L70.990,32.424 L74.429,32.424 L74.429,36.369 Z" class="cls-1"/>
    <path d="M76.121,17.549 C75.186,17.549 74.429,18.294 74.429,19.214 L74.429,29.094 L70.990,29.094 L70.990,20.748 C70.990,19.829 70.233,19.083 69.299,19.083 L61.451,19.083 L59.989,14.286 C59.775,13.582 59.116,13.100 58.369,13.100 L46.420,13.100 L46.420,8.887 L53.944,8.887 C54.878,8.887 55.636,8.142 55.636,7.222 L55.636,1.664 C55.636,0.744 54.878,-0.001 53.944,-0.001 L29.707,-0.001 C28.773,-0.001 28.016,0.744 28.016,1.664 L28.016,7.222 C28.016,8.142 28.773,8.887 29.707,8.887 L37.231,8.887 L37.231,13.100 L19.806,13.100 C19.186,13.100 18.616,13.433 18.320,13.969 L15.492,19.083 L8.876,19.083 C7.942,19.083 7.184,19.829 7.184,20.748 L7.184,29.094 L3.383,29.094 L3.383,17.191 C3.383,16.272 2.626,15.526 1.691,15.526 C0.757,15.526 -0.000,16.272 -0.000,17.191 L-0.000,51.603 C-0.000,52.522 0.757,53.268 1.691,53.268 C2.626,53.268 3.383,52.522 3.383,51.603 L3.383,39.699 L7.184,39.699 L7.184,48.513 C7.184,49.432 7.942,50.178 8.876,50.178 L22.960,50.178 L29.399,58.356 C29.719,58.763 30.213,59.001 30.736,59.001 L69.299,59.001 C70.233,59.001 70.990,58.256 70.990,57.336 L70.990,39.700 L74.429,39.700 L74.429,49.580 C74.429,50.499 75.186,51.245 76.121,51.245 C81.017,51.245 85.000,47.324 85.000,42.505 L85.000,26.290 C85.000,21.470 81.017,17.549 76.121,17.549 ZM3.383,36.369 L3.383,32.424 L7.184,32.424 L7.184,36.369 L3.383,36.369 ZM31.399,3.329 L52.253,3.329 L52.253,5.557 L31.399,5.557 L31.399,3.329 ZM40.614,8.887 L43.037,8.887 L43.037,13.100 L40.614,13.100 L40.614,8.887 ZM10.567,22.413 L11.769,22.413 L11.769,46.848 L10.567,46.848 L10.567,22.413 ZM25.126,47.493 C24.805,47.086 24.312,46.848 23.789,46.848 L15.152,46.848 L15.152,22.413 L16.498,22.413 C17.117,22.413 17.687,22.080 17.983,21.544 L20.811,16.430 L57.110,16.430 L58.572,21.227 C58.787,21.931 59.445,22.413 60.192,22.413 L63.228,22.413 L63.228,55.671 L31.565,55.671 L25.126,47.493 ZM67.607,55.671 L66.611,55.671 L66.611,22.413 L67.607,22.413 L67.607,55.671 ZM70.990,36.369 L70.990,32.424 L74.429,32.424 L74.429,36.369 L70.990,36.369 ZM81.617,42.505 C81.617,44.907 80.018,46.948 77.812,47.652 L77.812,21.141 C80.018,21.845 81.617,23.887 81.617,26.289 L81.617,42.505 Z" class="cls-2"/>
  </g>
</svg>
