<svg xmlns="http://www.w3.org/2000/svg" xmlns:xlink="http://www.w3.org/1999/xlink" preserveAspectRatio="xMidYMid" width="82" height="75" viewBox="0 0 82 75">
  <defs>
    <style>
      .cls-1 {
        fill: #9bb7d6;
        opacity: 0.4;
      }

      .cls-1, .cls-2 {
        fill-rule: evenodd;
      }

      .cls-2 {
        fill: #5b8ab5;
      }
    </style>
  </defs>
  <g>
    <path d="M17.646,56.461 L5.421,56.461 L4.697,51.345 L19.240,51.345 L17.646,56.461 ZM64.353,56.461 L62.759,51.345 L77.303,51.345 L76.579,56.461 L64.353,56.461 ZM17.351,25.954 C18.321,25.461 19.369,25.104 20.477,24.890 C21.472,24.698 23.060,24.522 25.105,24.376 C27.792,30.506 33.905,34.797 41.000,34.797 C48.095,34.797 54.208,30.506 56.895,24.377 C58.935,24.521 60.524,24.697 61.525,24.890 C62.631,25.104 63.680,25.461 64.651,25.955 L69.497,36.589 L12.505,36.589 L17.351,25.954 ZM20.353,70.254 C20.353,71.136 19.637,71.854 18.757,71.854 L10.910,71.854 C10.030,71.854 9.314,71.136 9.314,70.254 L9.314,67.610 C10.291,67.939 11.331,68.118 12.404,68.118 L20.353,68.118 L20.353,70.254 ZM72.685,70.254 C72.685,71.136 71.969,71.854 71.089,71.854 L63.244,71.854 C62.364,71.854 61.648,71.136 61.648,70.254 L61.648,68.118 L69.596,68.118 C70.669,68.118 71.709,67.939 72.685,67.610 L72.685,70.254 L72.685,70.254 Z" class="cls-1"/>
    <path d="M78.352,37.990 L74.164,38.497 L78.169,42.513 C80.116,44.465 81.047,47.262 80.661,49.995 L79.291,59.679 C78.939,62.168 77.651,64.339 75.821,65.856 L75.821,70.254 C75.821,72.870 73.698,74.999 71.089,74.999 L63.243,74.999 C60.634,74.999 58.511,72.870 58.511,70.254 L58.511,68.118 L23.489,68.118 L23.489,70.254 C23.489,72.870 21.366,74.999 18.757,74.999 L10.910,74.999 C8.301,74.999 6.178,72.870 6.178,70.254 L6.178,65.856 C4.348,64.339 3.061,62.168 2.709,59.679 L1.339,49.995 C0.952,47.262 1.883,44.465 3.831,42.513 L7.836,38.497 L3.648,37.990 C1.568,37.738 -0.000,35.964 -0.000,33.864 C-0.000,31.572 1.859,29.708 4.145,29.708 L7.062,29.708 C8.844,29.708 10.367,30.842 10.951,32.427 L15.031,23.476 C16.545,20.150 19.570,17.677 23.124,16.860 C23.289,16.822 23.468,16.786 23.660,16.750 C24.002,7.456 31.648,0.001 41.000,0.001 C50.351,0.001 57.997,7.456 58.340,16.750 C58.530,16.786 58.709,16.822 58.874,16.860 C62.428,17.676 65.453,20.149 66.967,23.475 L71.047,32.429 C71.631,30.842 73.155,29.708 74.937,29.708 L77.854,29.708 C80.140,29.708 82.000,31.573 82.000,33.864 C82.000,35.964 80.432,37.738 78.352,37.990 ZM76.579,56.461 L77.303,51.345 L62.759,51.345 L64.353,56.461 L76.579,56.461 ZM61.648,70.254 C61.648,71.136 62.364,71.854 63.244,71.854 L71.089,71.854 C71.969,71.854 72.685,71.136 72.685,70.254 L72.685,70.254 L72.685,67.610 C71.709,67.939 70.669,68.118 69.596,68.118 L61.648,68.118 L61.648,70.254 ZM9.314,70.254 C9.314,71.136 10.030,71.854 10.910,71.854 L18.757,71.854 C19.637,71.854 20.353,71.136 20.353,70.254 L20.353,68.118 L12.404,68.118 C11.331,68.118 10.291,67.939 9.314,67.610 L9.314,70.254 ZM12.404,64.973 L69.596,64.973 C72.766,64.973 75.507,62.690 76.122,59.605 L5.878,59.605 C6.493,62.690 9.234,64.973 12.404,64.973 ZM61.068,56.461 L59.474,51.346 L57.302,51.346 L58.896,56.461 L61.068,56.461 ZM55.611,56.461 L54.016,51.346 L27.983,51.346 L26.389,56.461 L55.611,56.461 ZM24.697,51.345 L22.526,51.345 L20.932,56.461 L23.103,56.461 L24.697,51.345 ZM5.421,56.461 L17.646,56.461 L19.240,51.345 L4.697,51.345 L5.421,56.461 ZM8.071,33.864 C8.071,33.306 7.619,32.852 7.062,32.852 L4.145,32.852 C3.589,32.852 3.136,33.306 3.136,33.864 C3.136,34.375 3.518,34.807 4.024,34.868 L8.071,35.358 L8.071,33.864 ZM23.830,19.924 C23.828,19.924 23.826,19.925 23.824,19.925 C22.478,20.235 21.237,20.870 20.197,21.746 C21.161,21.578 22.462,21.429 24.086,21.299 C23.983,20.847 23.898,20.388 23.830,19.924 ZM41.000,3.145 C33.161,3.145 26.783,9.539 26.783,17.399 C26.783,25.259 33.160,31.653 41.000,31.653 C48.839,31.653 55.217,25.259 55.217,17.399 C55.217,9.540 48.839,3.145 41.000,3.145 ZM58.175,19.925 C58.173,19.925 58.171,19.925 58.170,19.924 C58.102,20.389 58.017,20.848 57.913,21.300 C59.533,21.428 60.835,21.577 61.803,21.746 C60.762,20.870 59.521,20.234 58.175,19.925 ZM64.651,25.955 C63.680,25.461 62.631,25.104 61.525,24.890 C60.524,24.697 58.935,24.521 56.895,24.377 C54.208,30.506 48.095,34.797 41.000,34.797 C33.905,34.797 27.792,30.506 25.105,24.376 C23.060,24.522 21.472,24.698 20.477,24.890 C19.369,25.104 18.321,25.461 17.351,25.954 L12.505,36.589 L69.497,36.589 L64.651,25.955 ZM70.962,39.733 L11.038,39.733 L6.048,44.736 C5.116,45.670 4.546,46.906 4.417,48.201 L77.583,48.201 C77.453,46.906 76.884,45.670 75.952,44.736 L70.962,39.733 ZM77.855,32.852 L74.938,32.852 C74.381,32.852 73.929,33.306 73.929,33.864 L73.929,33.864 L73.929,35.358 L77.976,34.868 C78.482,34.807 78.864,34.375 78.864,33.864 C78.864,33.306 78.411,32.852 77.855,32.852 ZM41.226,26.337 C41.032,26.929 40.507,27.351 39.888,27.411 C39.837,27.416 39.786,27.419 39.735,27.419 C39.173,27.419 38.648,27.116 38.369,26.618 L33.665,18.233 C33.241,17.476 33.508,16.518 34.263,16.092 C35.018,15.667 35.974,15.935 36.399,16.692 L39.357,21.965 L43.995,7.802 C44.265,6.977 45.152,6.528 45.974,6.799 C46.797,7.069 47.245,7.958 46.975,8.783 L41.226,26.337 Z" class="cls-2"/>
  </g>
</svg>
